<?xml version="1.0" standalone="no"?>
<!DOCTYPE svg PUBLIC "-//W3C//DTD SVG 20010904//EN"
 "http://www.w3.org/TR/2001/REC-SVG-20010904/DTD/svg10.dtd">
<svg version="1.0" xmlns="http://www.w3.org/2000/svg"
 width="16.000000pt" height="16.000000pt" viewBox="0 0 16.000000 16.000000"
 preserveAspectRatio="xMidYMid meet">
<metadata>
Created by potrace 1.11, written by Peter Selinger 2001-2013
</metadata>
<g transform="translate(0.000000,16.000000) scale(0.002680,-0.002680)"
fill="#000000" stroke="none">
<path d="M2819 5846 c-2 -2 -40 -6 -84 -9 -79 -6 -216 -24 -245 -32 -8 -2 -31
-6 -51 -9 -144 -21 -559 -153 -559 -177 0 -6 40 -92 89 -192 118 -242 125
-259 154 -357 23 -77 30 -106 44 -190 2 -14 6 -103 9 -199 l5 -174 48 -111
c217 -497 339 -667 501 -702 14 -2 66 -11 115 -19 130 -20 200 -40 281 -80
137 -67 205 -177 238 -381 1 -7 16 -28 34 -48 63 -72 101 -177 96 -264 -2 -24
-12 -72 -24 -107 -55 -166 -15 -291 144 -448 94 -93 128 -146 151 -232 20 -77
18 -217 -5 -312 -9 -40 -14 -73 -11 -73 16 0 114 114 186 215 97 135 111 152
194 241 62 66 68 77 101 180 19 60 35 114 35 119 0 6 -28 38 -62 73 -60 60
-115 138 -217 305 -27 43 -65 98 -86 122 -52 61 -74 122 -67 189 14 137 121
228 256 219 119 -7 186 -76 374 -387 47 -78 67 -102 110 -130 69 -43 121 -106
149 -175 17 -45 22 -77 22 -166 0 -119 -17 -203 -75 -365 -17 -47 -42 -116
-56 -155 -19 -55 -32 -76 -63 -99 -66 -49 -138 -127 -200 -216 -32 -47 -62
-90 -67 -95 -4 -6 -26 -33 -47 -60 -63 -80 -183 -193 -283 -267 -50 -37 -95
-68 -99 -68 -4 0 -15 -6 -23 -14 -25 -23 -171 -94 -247 -120 -184 -65 -368 10
-451 183 -23 47 -27 69 -27 141 l0 85 77 155 c75 153 118 266 119 319 1 21
-13 40 -57 81 -212 202 -314 492 -268 763 14 79 14 79 -12 112 -22 29 -41 66
-51 100 -2 6 -9 42 -16 82 -7 39 -16 75 -20 78 -9 9 -71 23 -133 30 -421 49
-639 276 -954 994 -44 101 -83 198 -87 215 -3 18 -7 117 -8 222 -2 156 -7 203
-24 269 -27 98 -215 485 -237 485 -29 0 -291 -197 -404 -304 -170 -161 -294
-303 -414 -475 -263 -374 -427 -797 -493 -1271 -17 -119 -30 -545 -16 -537 4
3 25 8 47 11 22 4 67 13 100 20 58 13 92 19 200 32 28 3 77 9 110 14 90 11
298 4 400 -14 390 -70 727 -291 947 -621 26 -39 66 -85 90 -102 92 -67 216
-199 301 -320 112 -160 201 -391 231 -598 13 -91 15 -317 3 -385 -5 -30 -18
-99 -23 -122 -30 -142 -103 -365 -150 -460 -24 -48 -40 -89 -36 -91 7 -5 48
-14 97 -23 17 -2 37 -7 45 -9 8 -3 35 -7 60 -10 25 -3 56 -7 69 -10 137 -26
618 -27 746 -1 11 2 45 7 75 11 30 4 64 9 75 11 1096 204 1980 1019 2266 2091
17 63 33 127 35 142 2 14 7 37 9 51 3 14 8 36 10 50 3 14 7 43 10 65 3 22 8
51 10 65 13 60 20 199 20 375 -1 228 -9 331 -40 495 -8 41 -16 86 -19 100 -15
89 -93 341 -151 491 l-18 45 41 60 c90 132 150 277 176 426 14 81 15 295 1
363 -29 147 -97 310 -175 425 -153 226 -411 395 -687 451 -72 14 -284 20 -343
9 -25 -5 -61 -11 -80 -14 -99 -15 -272 -91 -384 -168 -42 -29 -74 -44 -80 -39
-29 22 -361 133 -466 155 -140 30 -117 26 -285 51 -94 14 -515 31 -526 21z
m2141 -505 c202 -63 374 -254 408 -455 9 -52 8 -189 -1 -238 -49 -260 -294
-465 -567 -474 -323 -11 -589 226 -616 547 -26 308 204 598 511 642 62 9 202
-3 265 -22z"/>
<path d="M628 2405 c-2 -1 -28 -5 -58 -9 -69 -8 -114 -14 -165 -22 -45 -7 -44
-7 -143 -28 -40 -9 -75 -16 -78 -16 -11 0 -1 -47 32 -162 66 -229 183 -497
298 -683 27 -44 56 -92 65 -107 9 -16 19 -28 24 -28 4 0 7 -4 7 -10 0 -12 139
-196 200 -265 66 -73 215 -221 293 -290 85 -74 284 -217 392 -282 81 -48 344
-183 358 -183 17 0 115 222 146 330 53 185 63 239 66 350 6 205 -49 389 -167
563 -59 86 -171 197 -251 246 -24 15 -60 56 -99 115 -100 150 -151 208 -261
292 -112 87 -268 155 -412 180 -39 6 -241 14 -247 9z"/>
</g>
</svg>
